<svg width="78" height="78" viewBox="0 0 1000 1000" fill="none" xmlns="http://www.w3.org/2000/svg">
  <path fill-rule="evenodd" clip-rule="evenodd" d="M996.311 499.993C996.311 774.094 774.107 996.304 500 996.304C225.893 996.304 3.68945 774.094 3.68945 499.993C3.68945 225.886 225.893 3.68262 500 3.68262C774.107 3.68262 996.311 225.886 996.311 499.993Z" fill="white"/>
  <mask id="mask0_1152_4473" maskUnits="userSpaceOnUse" x="3" y="3" width="994" height="994">
  <path fill-rule="evenodd" clip-rule="evenodd" d="M996.311 499.993C996.311 774.094 774.107 996.304 500 996.304C225.893 996.304 3.68945 774.094 3.68945 499.993C3.68945 225.886 225.893 3.68262 500 3.68262C774.107 3.68262 996.311 225.886 996.311 499.993Z" fill="white"/>
  </mask>
  <g mask="url(#mask0_1152_4473)">
  <path fill-rule="evenodd" clip-rule="evenodd" d="M415.168 567.518C415.168 567.518 451.682 543.662 445.188 445.142C445.188 445.142 502.936 472.167 565.936 426.472L580.468 566.38C580.468 566.38 536.789 615.994 490.989 611.183C445.188 606.371 415.168 567.518 415.168 567.518Z" fill="white"/>
  <path fill-rule="evenodd" clip-rule="evenodd" d="M446.591 442.149C483.926 459.621 522.916 453.593 563.996 423.796C566.056 422.301 568.962 423.599 569.225 426.131L583.757 566.038C583.852 566.956 583.56 567.873 582.95 568.565C553.181 602.379 522.373 617.804 490.644 614.471C459.196 611.167 433.109 596.144 412.553 569.539C411.373 568.013 411.746 565.805 413.361 564.75C436.398 549.699 446.148 509.954 441.89 445.36C441.725 442.85 444.312 441.082 446.591 442.149ZM577.024 565.267L563.224 432.419L560.498 434.267C522.617 459.332 485.863 464.988 450.541 451.049L448.81 450.344L448.897 451.861C451.972 511.173 442.822 549.736 420.899 567.432L419.922 568.19L421.494 570.092C439.705 591.671 462.023 604.129 488.573 607.571L491.335 607.895C520.672 610.977 549.517 596.534 577.988 564.196L577.024 565.267Z" fill="black"/>
  <path fill-rule="evenodd" clip-rule="evenodd" d="M491.107 454.244C424.372 454.244 370.272 396.878 370.272 326.103C370.272 255.328 424.372 197.956 491.107 197.956C557.842 197.956 611.942 255.328 611.942 326.103C611.942 396.878 557.842 454.244 491.107 454.244Z" fill="white"/>
  <path fill-rule="evenodd" clip-rule="evenodd" d="M491.107 201.262C426.303 201.262 373.578 257.266 373.578 326.104C373.578 394.941 426.303 450.938 491.107 450.938C555.911 450.938 608.635 394.941 608.635 326.104C608.635 257.266 555.911 201.262 491.107 201.262ZM491.107 457.55C422.653 457.55 366.966 398.584 366.966 326.104C366.966 253.616 422.653 194.65 491.107 194.65C559.561 194.65 615.247 253.616 615.247 326.104C615.247 398.584 559.561 457.55 491.107 457.55Z" fill="black"/>
  <path fill-rule="evenodd" clip-rule="evenodd" d="M487.568 371.482C485.73 371.178 483.985 372.447 483.694 374.292C482.14 383.939 472.162 383.569 471.025 383.47C469.154 383.232 467.554 384.733 467.408 386.59C467.27 388.455 468.665 390.082 470.523 390.234C470.946 390.26 471.395 390.28 471.865 390.28C478.107 390.28 488.468 387.265 490.372 375.363C490.669 373.525 489.42 371.78 487.568 371.482ZM423.161 277.697C422.566 277.697 408.773 277.492 396.514 288.025C395.093 289.242 394.934 291.378 396.144 292.799C396.819 293.579 397.764 293.976 398.716 293.976C399.496 293.976 400.283 293.705 400.925 293.156C411.167 284.362 422.916 284.488 423.009 284.468C424.834 284.342 426.414 283.02 426.454 281.162C426.493 279.291 425.025 277.744 423.161 277.697ZM503.371 288.025C491.112 277.492 477.3 277.678 476.725 277.697C474.86 277.744 473.379 279.304 473.419 281.169C473.472 283.046 475.006 284.316 476.89 284.468C476.956 284.442 488.633 284.283 498.961 293.156C499.596 293.705 500.382 293.976 501.163 293.976C502.115 293.976 503.06 293.579 503.735 292.799C504.945 291.378 504.786 289.242 503.371 288.025ZM416.106 309.283C412.251 309.283 409.13 314.242 409.13 320.371C409.13 326.487 412.251 331.453 416.106 331.453C419.954 331.453 423.075 326.487 423.075 320.371C423.075 314.242 419.954 309.283 416.106 309.283ZM483.78 309.283C479.925 309.283 476.811 314.242 476.811 320.371C476.811 326.487 479.925 331.453 483.78 331.453C487.628 331.453 490.749 326.487 490.749 320.371C490.749 314.242 487.628 309.283 483.78 309.283ZM456.38 357.035L439.493 354.985L444.789 334.845C445.265 333.04 444.187 331.188 442.382 330.712C440.583 330.21 438.719 331.314 438.243 333.126L431.955 357.015C431.704 357.96 431.882 358.966 432.431 359.779C432.98 360.592 433.846 361.121 434.818 361.233L455.573 363.753C455.705 363.772 455.844 363.779 455.976 363.779C457.669 363.779 459.124 362.523 459.335 360.81C459.56 358.946 458.238 357.266 456.38 357.035Z" fill="black"/>
  <path fill-rule="evenodd" clip-rule="evenodd" d="M662.642 252.762C652.242 220.625 624.584 190.585 578.921 178.77C580.991 172.023 582.108 164.845 582.108 157.413C582.108 117.83 550.536 85.7401 511.598 85.7401C489.104 85.7401 469.109 96.4925 456.202 113.166C442.073 78.3875 408.407 53.892 369.092 53.892C352.047 53.892 336.105 58.5561 322.312 66.6003C311.522 41.0694 286.581 23.1865 257.515 23.1865C218.57 23.1865 187.004 55.2766 187.004 94.8527C187.004 134.436 218.57 166.519 257.515 166.519C263.922 166.519 270.097 165.571 275.995 163.945C282.793 210.068 321.823 245.477 369.092 245.477C376.875 245.477 390.767 244.812 390.767 244.812H393.028C405.042 261.976 424.719 273.206 447.018 273.206C466.742 273.206 484.396 264.402 496.529 250.511C504.325 266.149 520.121 276.982 538.555 276.982C548.513 276.982 557.723 273.817 565.34 268.474L571.284 321.371C577.678 320.141 584.793 320.934 593.316 331.102C596.469 334.872 598.718 339.643 598.678 344.59C598.585 357.479 588.277 367.896 575.576 367.896C574.802 367.896 574.081 367.742 573.334 367.674L575.88 425.264C606.308 425.264 629.503 405.527 644.287 377.677C662.451 343.427 674.61 289.717 662.642 252.762Z" fill="#02080B"/>
  <path fill-rule="evenodd" clip-rule="evenodd" d="M511.651 89.1031C548.704 89.1031 578.855 119.748 578.855 157.409C578.855 164.344 577.83 171.193 575.814 177.766C575.549 178.646 575.642 179.6 576.085 180.406C576.528 181.213 577.275 181.798 578.154 182.026C618.494 192.463 648.162 218.625 659.555 253.814C671.179 289.727 659.237 342.509 641.425 376.077C626.376 404.45 604.331 420.583 579.093 421.826L576.852 371.226C590.744 370.574 601.931 358.887 602.037 344.62C602.077 339.284 599.888 333.706 595.888 328.927C587.576 319.008 580.178 317.22 574.24 317.604L568.679 268.094C568.547 266.918 567.82 265.91 566.762 265.42C565.697 264.922 564.474 265.043 563.515 265.709C556.136 270.883 547.521 273.625 538.608 273.625C522.078 273.625 507.102 264.183 499.531 248.988C499.035 248 498.096 247.315 497.005 247.174C495.927 247.059 494.836 247.449 494.109 248.276C482.135 261.985 464.99 269.848 447.071 269.848C426.772 269.848 407.591 259.761 395.769 242.866C395.147 241.979 394.149 241.448 393.078 241.448H390.816C390.525 241.461 376.759 242.113 369.136 242.113C324.538 242.113 285.923 208.296 279.318 163.451C279.173 162.496 278.644 161.657 277.857 161.132C277.063 160.608 276.091 160.447 275.179 160.702C269.274 162.328 263.35 163.162 257.558 163.162C220.504 163.162 190.36 132.517 190.36 94.8556C190.36 57.1876 220.504 26.5495 257.558 26.5495C284.456 26.5495 308.695 42.786 319.321 67.9268C319.691 68.8075 320.418 69.486 321.311 69.7822C322.21 70.0976 323.182 69.9904 324.009 69.513C337.762 61.4953 353.366 57.2551 369.136 57.2551C406.09 57.2551 439.084 79.7081 453.194 114.446C453.644 115.554 454.635 116.327 455.799 116.495C456.943 116.657 458.127 116.179 458.854 115.246C471.714 98.6323 490.955 89.1031 511.651 89.1031ZM575.933 428.623C605.039 428.623 630.363 411.095 647.243 379.271C665.73 344.431 678.048 289.432 665.836 251.71C654.04 215.272 623.975 187.974 583.074 176.401C584.66 170.219 585.467 163.847 585.467 157.409C585.467 116.038 552.354 82.3827 511.651 82.3827C490.711 82.3827 471.132 91.2533 457.128 106.905C440.962 72.4832 406.983 50.5346 369.136 50.5346C353.412 50.5346 337.841 54.4595 323.883 61.9192C311.532 36.2269 285.884 19.8291 257.558 19.8291C216.861 19.8291 183.748 53.4849 183.748 94.8556C183.748 136.226 216.861 169.882 257.558 169.882C262.775 169.882 268.084 169.27 273.38 168.074C281.969 214.372 322.508 248.833 369.136 248.833C376.911 248.833 390.4 248.195 390.975 248.168H391.398C404.523 265.984 425.205 276.569 447.071 276.569C465.353 276.569 482.902 269.169 495.901 256.118C505.125 271.172 521.106 280.346 538.608 280.346C547.071 280.346 555.31 278.202 562.695 274.102L568.051 321.757C568.157 322.684 568.633 323.524 569.374 324.075C570.114 324.633 571.04 324.848 571.952 324.673C577.189 323.685 583.087 324.015 590.856 333.282C593.825 336.837 595.451 340.843 595.425 344.565C595.346 355.58 586.459 364.539 575.622 364.539C575.271 364.539 574.941 364.485 574.604 364.438L573.698 364.331C572.699 364.25 571.8 364.565 571.106 365.238C570.412 365.91 570.041 366.85 570.081 367.825L572.633 425.41C572.713 427.208 574.167 428.623 575.933 428.623Z" fill="black"/>
  <path fill-rule="evenodd" clip-rule="evenodd" d="M864.004 907.448L917.674 1039.54L1222.77 951.643L1125.52 809.809C1014.3 647.596 830.257 550.638 633.569 550.638H585.837C573.056 577.555 541.418 596.657 504.285 596.783C467.152 596.657 435.513 577.555 422.739 550.638H375.007C178.319 550.638 -26.4678 644.634 -137.695 806.846L-227.565 947.305L91.4375 1050.7L144.565 907.448L125.271 1051.67L83.6684 1295.33H924.901L883.298 1051.66L864.004 907.448Z" fill="white"/>
  <path fill-rule="evenodd" clip-rule="evenodd" d="M87.6884 1291.95H920.894L879.966 1052.23L860.652 907.898C860.434 906.205 861.492 904.618 863.138 904.182C864.804 903.725 866.504 904.598 867.145 906.172L919.671 1035.45L1217.33 949.685L1122.73 811.732C1012.09 650.366 829.232 554.023 633.576 554.023H587.946C573.605 582.005 541.047 600.042 504.298 600.175C467.529 600.042 434.964 582.005 420.636 554.023H375.007C171.357 554.023 -28.7953 654.023 -134.898 808.77L-222.355 945.44L89.3944 1046.49L141.398 906.278C141.993 904.658 143.725 903.765 145.385 904.168C147.064 904.578 148.155 906.185 147.924 907.898L128.63 1052.13L87.6884 1291.95ZM924.908 1298.72H83.675C82.6766 1298.72 81.7311 1298.28 81.0831 1297.52C80.4417 1296.76 80.1706 1295.75 80.3425 1294.77L121.939 1051.11L137.193 937.083L94.6113 1051.88C93.9831 1053.59 92.1185 1054.47 90.3994 1053.93L-228.61 950.525C-229.609 950.201 -230.395 949.434 -230.752 948.456C-231.103 947.457 -230.984 946.366 -230.415 945.487L-140.538 805.028C-33.146 648.403 169.188 547.259 375.007 547.259H422.739C424.048 547.259 425.238 548.013 425.8 549.19C438.489 575.929 469.301 593.285 504.298 593.404C539.269 593.285 570.087 575.929 582.782 549.19C583.344 548.013 584.535 547.259 585.844 547.259H633.576C831.467 547.259 1016.41 644.693 1128.32 807.898L1225.56 949.725C1226.18 950.624 1226.32 951.768 1225.96 952.786C1225.59 953.811 1224.76 954.598 1223.71 954.896L918.62 1042.8C916.947 1043.3 915.195 1042.43 914.547 1040.83L870.894 933.387L886.657 1051.21L928.24 1294.77C928.405 1295.75 928.134 1296.76 927.493 1297.52C926.851 1298.28 925.899 1298.72 924.908 1298.72Z" fill="black"/>
  <path fill-rule="evenodd" clip-rule="evenodd" d="M367.654 1051.48L192.172 1007.34C178.048 1003.78 169.473 989.45 173.023 975.32L268.402 596.148C271.952 582.018 286.287 573.449 300.417 576.999L475.9 621.141C490.023 624.692 498.599 639.027 495.041 653.157L399.67 1032.33C396.119 1046.46 381.784 1055.03 367.654 1051.48Z" fill="#00ACAC"/>
  <path fill-rule="evenodd" clip-rule="evenodd" d="M293.93 579.578C289.824 579.578 285.784 580.683 282.174 582.845C276.898 586.005 273.169 591.017 271.674 596.975L176.303 976.154C173.215 988.452 180.7 1000.96 192.992 1004.06L368.474 1048.19C374.425 1049.69 380.614 1048.79 385.884 1045.63C391.16 1042.48 394.883 1037.46 396.384 1031.51L491.755 652.33C494.843 640.032 487.358 627.516 475.06 624.421L299.584 580.286C297.713 579.81 295.815 579.578 293.93 579.578ZM374.134 1055.68C371.701 1055.68 369.248 1055.37 366.821 1054.76L191.345 1010.63C175.43 1006.62 165.737 990.416 169.737 974.501L265.109 595.322C267.053 587.612 271.879 581.119 278.696 577.033C285.52 572.96 293.521 571.783 301.237 573.714L476.713 617.849C492.628 621.862 502.321 638.068 498.321 653.977L402.949 1033.16C401.005 1040.87 396.179 1047.36 389.362 1051.44C384.68 1054.24 379.45 1055.67 374.134 1055.68Z" fill="black"/>
  <path fill-rule="evenodd" clip-rule="evenodd" d="M289.646 621.795C287.609 629.902 292.529 638.121 300.628 640.157C308.735 642.2 316.953 637.281 318.99 629.175C321.033 621.075 316.114 612.849 308.007 610.813C299.908 608.77 291.682 613.689 289.646 621.795Z" fill="white"/>
  <path fill-rule="evenodd" clip-rule="evenodd" d="M292.932 622.615C292.165 625.657 292.634 628.817 294.241 631.515C295.854 634.206 298.413 636.11 301.455 636.871C304.503 637.644 307.657 637.175 310.348 635.568C313.046 633.955 314.95 631.396 315.71 628.348C316.477 625.307 316.014 622.153 314.401 619.455C312.788 616.757 310.229 614.859 307.187 614.099C300.899 612.466 294.505 616.347 292.932 622.615ZM304.364 644.012C302.843 644.012 301.316 643.82 299.808 643.43C295.008 642.233 290.975 639.231 288.429 634.986C285.897 630.742 285.163 625.769 286.366 620.969C288.859 611.064 298.936 605.074 308.84 607.527C313.634 608.73 317.674 611.732 320.206 615.984C322.752 620.228 323.486 625.207 322.276 630.001C321.073 634.795 318.071 638.841 313.826 641.38C310.917 643.119 307.663 644.012 304.364 644.012Z" fill="black"/>
  <path fill-rule="evenodd" clip-rule="evenodd" d="M-85.3146 901.775C-101.686 968.874 -103.048 987.665 -103.048 987.665L-206.242 954.222C-206.242 954.222 -448.653 1292.93 -247.342 1418.95C-46.0393 1544.97 109.442 1040.89 109.442 1040.89C109.442 1040.89 140.228 1014.38 169.307 977.496C169.453 976.497 169.492 975.499 169.744 974.501L213.899 798.945C209.885 790.72 206.004 787.209 206.004 787.209C206.004 787.209 209.799 789.602 215.512 792.551L236.888 707.561C216.53 694.621 186.439 682.852 142.178 674.282C-10.0303 644.826 -68.9499 834.677 -85.3146 901.775ZM1200.13 958.162L928.498 1036.43L945.762 1076.89C945.762 1076.89 764.097 954.149 708.45 906.681C652.804 859.22 613.528 733.202 587.338 693.92C561.155 654.645 505.508 657.918 490.783 674.692C476.051 691.474 487.503 703.746 487.503 703.746C487.503 703.746 397.494 649.732 364.758 689.007C332.029 728.289 389.309 767.571 389.309 767.571C389.309 767.571 296.02 726.656 281.162 770.844C266.312 815.032 322.21 839.583 322.21 839.583C313.204 837.335 304.086 841.394 296.846 846.459C285.745 854.228 278.088 866.566 277.473 880.108C275.628 920.983 330.171 932.706 347.845 935.424C311.558 931.959 302.566 971.32 302.566 971.32C296.84 1027.8 361.485 1024.52 361.485 1024.52C498.149 1012.25 582.432 1081.81 582.432 1081.81C582.432 1081.81 790.287 1433.68 1050.51 1400.95C1310.74 1368.22 1200.13 958.162 1200.13 958.162Z" fill="white"/>
  <path fill-rule="evenodd" clip-rule="evenodd" d="M334.039 932.646C334.039 932.646 407.432 943.583 445.901 956.41L334.039 932.646Z" fill="white"/>
  <path fill-rule="evenodd" clip-rule="evenodd" d="M389.309 767.571C389.309 767.571 459.422 787.044 504.291 821.757L389.309 767.571Z" fill="white"/>
  <path fill-rule="evenodd" clip-rule="evenodd" d="M487.503 703.745C487.503 703.745 522.838 720.242 555.964 751.239L487.503 703.745Z" fill="white"/>
  <path fill-rule="evenodd" clip-rule="evenodd" d="M1176.27 1323.24C1147.82 1365.62 1105.36 1390.63 1050.08 1397.59C795.193 1429.72 587.404 1083.59 585.341 1080.09C585.143 1079.74 584.885 1079.45 584.581 1079.19C583.794 1078.54 511.016 1019.69 393.375 1019.69C383.034 1019.69 372.329 1020.15 361.313 1021.15C361.016 1021.15 331.368 1022.4 315.552 1005.74C307.71 997.477 304.47 986.018 305.858 972.08C306.216 970.533 314.368 936.825 345.874 938.564C349.828 939.199 352.433 939.457 352.982 939.509C353.412 939.529 353.822 939.463 354.212 939.351C378.789 943.549 419.611 951.213 444.823 959.623C445.18 959.735 445.544 959.788 445.894 959.788C447.309 959.788 448.632 958.889 449.101 957.481C449.696 955.709 448.737 953.791 446.965 953.196C410.408 941.01 341.947 930.424 335.123 929.386C313.119 923.998 279.47 910.774 280.852 880.259C281.394 868.305 288.099 856.701 298.79 849.229C307.181 843.364 314.778 841.209 321.384 842.868C321.503 842.895 321.615 842.868 321.734 842.888C321.833 842.901 321.926 842.954 322.025 842.954C322.699 843 390.353 846.974 472.104 889.946C472.607 890.21 473.142 890.329 473.671 890.329C474.888 890.329 476.071 889.681 476.673 888.524C477.546 886.871 476.911 884.815 475.252 883.949C396.469 842.538 330.257 836.765 323.063 836.25C317.833 833.79 271.364 810.622 284.369 771.915C286.67 765.085 291.087 760.298 297.871 757.296C327.162 744.33 387.338 770.401 387.94 770.672C388.026 770.705 388.112 770.698 388.198 770.725C388.271 770.751 388.323 770.804 388.396 770.83C389.09 771.022 458.404 790.547 502.215 824.441C502.83 824.91 503.558 825.141 504.285 825.141C505.29 825.141 506.295 824.698 506.963 823.832C508.107 822.351 507.836 820.229 506.361 819.078C462.755 785.344 397.157 766.275 390.796 764.476C387.213 761.898 361.558 742.663 358.364 719.462C356.989 709.504 360.018 699.983 367.357 691.182C397.858 654.585 484.892 706.112 485.758 706.641C485.818 706.674 485.877 706.681 485.93 706.707C485.983 706.734 486.016 706.787 486.069 706.806C486.419 706.972 521.331 723.469 553.644 753.705C554.298 754.314 555.131 754.618 555.958 754.618C556.864 754.618 557.763 754.261 558.431 753.547C559.707 752.178 559.641 750.042 558.272 748.76C527.242 719.733 494.823 703.5 489.619 701.001C488.013 698.978 482.022 689.794 493.322 676.927C499.795 669.554 515.129 665.296 531.473 666.4C553.716 667.881 573.05 678.586 584.522 695.791C593.091 708.645 603.2 731.218 614.91 757.349C638.813 810.701 668.567 877.118 706.249 909.259C753.002 949.143 889.91 1042.97 931.632 1071.39C932.419 1071.93 933.378 1072.6 934.594 1073.4C940.267 1077.26 943.626 1079.54 943.871 1079.7C944.479 1080.11 945.187 1080.3 945.888 1080.27C961.816 1089.19 987.623 1100.61 1015.31 1100.61C1017.84 1100.61 1020.39 1100.52 1022.95 1100.31C1024.81 1100.17 1026.2 1098.54 1026.06 1096.68C1025.91 1094.82 1024.33 1093.49 1022.42 1093.58C993.17 1095.81 964.54 1082.9 948.023 1073.56L933.107 1038.62L1197.71 962.387C1205.01 991.738 1254.6 1206.55 1176.27 1323.24ZM1201.79 955.219C1201 954.77 1200.07 954.684 1199.19 954.915L927.559 1033.18C926.627 1033.45 925.853 1034.1 925.437 1034.97C925.02 1035.85 925 1036.86 925.384 1037.75L938.099 1067.56C935.335 1065.75 933.768 1064.59 933.688 1064.53C933.583 1064.45 933.464 1064.43 933.358 1064.37C889.415 1034.43 756.407 943.146 710.646 904.102C674.121 872.953 644.711 807.322 621.086 754.578C609.25 728.17 599.035 705.372 590.155 692.042C577.506 673.065 556.282 661.263 531.923 659.65C513.304 658.38 496.145 663.438 488.231 672.457C480.151 681.667 479.159 689.86 480.283 695.837C456.163 683.076 390.419 652.952 362.153 686.845C353.538 697.179 350.007 708.473 351.66 720.414C353.736 735.43 363.621 748.535 372.468 757.56C351.336 750.419 316.696 741.572 295.14 751.1C286.631 754.862 280.852 761.144 277.956 769.766C266.689 803.282 293.547 826.193 309.707 836.494C304.953 837.711 300.014 840.111 294.909 843.681C282.505 852.35 274.723 865.911 274.088 879.955C272.6 912.929 304.153 927.985 327.824 934.616C305.673 943.596 299.326 970.315 299.194 970.983C297.527 987.4 301.389 1000.67 310.659 1010.42C328.643 1029.34 360.302 1027.97 361.783 1027.89C490.393 1016.28 573.129 1078.8 579.834 1084.07C588.925 1099.12 777.89 1406.46 1016.57 1406.46C1027.9 1406.46 1039.38 1405.76 1050.93 1404.31C1108.25 1397.09 1152.31 1371.09 1181.9 1327C1267.38 1199.64 1204.04 959.696 1203.39 957.282C1203.15 956.41 1202.58 955.662 1201.79 955.219Z" fill="black"/>
  <path fill-rule="evenodd" clip-rule="evenodd" d="M216.821 797.034C217.119 797.173 217.456 797.332 217.76 797.471L219.446 790.766C212.741 787.44 208.02 784.491 207.835 784.366L207.822 784.353L168.884 759.491C168.176 759.048 167.37 758.929 166.603 759.042C128.65 728.653 69.598 724.163 68.7517 724.111C66.8342 723.945 65.2804 725.393 65.1481 727.258C65.0225 729.123 66.4309 730.742 68.3021 730.868C69.446 730.947 183.463 739.569 190.77 814.338C195.881 866.639 190.823 900.393 176.521 909.379C169.281 913.948 159.105 912.321 146.324 904.552C146.125 904.427 145.894 904.394 145.682 904.327C148.195 881.496 141.814 851.623 126.508 814.821C104.397 761.667 26.7192 776.167 25.939 776.312C24.1074 776.683 22.9106 778.448 23.2677 780.293C23.6247 782.118 25.3968 783.288 27.2349 782.964C27.9622 782.825 100.271 769.383 120.325 817.578C149.18 886.944 145.286 929.916 109.032 945.19C102.447 947.272 83.7477 950.803 76.4084 942.313C76.1968 942.075 75.9324 941.917 75.6745 941.751C84.1842 917.472 85.2884 885.001 82.1014 862.778C74.9869 813.135 -1.68603 818.153 -4.95898 818.385C-6.82356 818.517 -8.2253 820.137 -8.09306 822.001C-7.95421 823.866 -6.28134 825.288 -4.46965 825.135C-3.7225 825.069 69.1815 820.315 75.4034 863.743C80.0517 896.181 74.5306 950.777 52.387 964.636C43.474 970.209 32.3328 968.556 19.2806 959.723C-17.5615 934.789 16.9135 872.147 17.2639 871.512C18.1764 869.885 17.5945 867.823 15.968 866.903C14.3282 865.991 12.2719 866.573 11.3595 868.206C10.7908 869.218 5.67309 878.527 1.36206 891.322C1.01163 890.872 0.588538 890.482 0.0199055 890.257C-6.30779 887.678 -6.83674 873.125 -6.51936 868.239C-6.40034 866.368 -7.81539 864.761 -9.67998 864.642C-11.5446 864.642 -13.1512 865.932 -13.2769 867.79C-13.4355 870.223 -14.4868 891.659 -2.53234 896.519C-2.11578 896.691 -1.67939 896.77 -1.24961 896.77C-0.899172 896.77 -0.601665 896.585 -0.271065 896.479C-6.80373 918.689 -9.31632 948.549 15.4853 965.33C24.7025 971.572 33.2585 974.692 41.0871 974.692C46.3965 974.692 51.3687 973.251 55.9773 970.375C63.2307 965.832 68.798 958.017 73.0231 948.463C78.2201 953.091 85.4933 954.486 92.3301 954.486C101.898 954.486 110.573 951.795 111.366 951.537C129.569 943.874 140.591 930.392 144.532 911.283C152.989 916.156 160.645 918.689 167.37 918.689C172.064 918.689 176.322 917.505 180.124 915.105C184.964 912.07 188.865 907.091 191.894 900.307L198.215 875.188C200.165 859.075 199.934 838.551 197.507 813.683C196.099 799.322 191.094 787.268 183.88 777.099L203.895 789.887C204.648 790.621 210.354 796.658 214.586 810.1L217.502 798.496C217.277 798 217.052 797.491 216.821 797.034Z" fill="black"/>
  <path fill-rule="evenodd" clip-rule="evenodd" d="M173.023 975.327L176.204 962.678C145.292 1005.29 107.816 1037.82 107.234 1038.32C106.751 1038.74 106.387 1039.28 106.209 1039.89C105.177 1043.24 1.40851 1374.79 -142.885 1428.46C-177.387 1441.3 -211.935 1437.12 -245.557 1416.08C-285.889 1390.83 -310.928 1354.82 -319.98 1309.05C-347.526 1169.72 -219.882 979.869 -204.906 958.215L-108.093 989.589C-138.872 1125.58 -178.782 1162.35 -179.205 1162.74C-180.607 1163.97 -180.739 1166.11 -179.509 1167.51C-178.841 1168.27 -177.909 1168.66 -176.97 1168.66C-176.177 1168.66 -175.383 1168.38 -174.749 1167.82C-172.924 1166.23 -132.63 1129.54 -101.355 990.554C-101.296 990.515 -101.223 990.515 -101.157 990.475C-100.297 989.893 -99.7486 988.954 -99.6758 987.916C-99.6626 987.804 -99.0742 980.848 -95.2855 961.587C-95.0409 960.377 -94.8028 959.214 -94.5714 957.99C-91.9398 944.971 -87.9858 926.98 -82.035 902.575C-63.2503 825.565 -3.82822 649.507 141.53 677.615C183.992 685.827 216.867 697.814 239.011 712.976L240.79 705.914C218.031 690.905 185.341 679.195 142.82 670.963C76.0713 658.05 19.5056 684.604 -25.3106 749.897C-61.0155 801.94 -80.2961 866.897 -88.6074 900.982C-95.9136 930.927 -100.225 951.213 -102.783 964.596C-104.04 970.884 -105.309 977.033 -106.605 982.951L-205.197 951.001C-206.599 950.545 -208.133 951.054 -208.999 952.251C-210.473 954.314 -356.287 1160.27 -326.618 1310.35C-317.196 1358.03 -291.132 1395.54 -249.147 1421.82C-227.096 1435.62 -204.648 1442.54 -182.035 1442.54C-168.242 1442.54 -154.384 1439.96 -140.518 1434.8C-78.491 1411.73 -16.9993 1338.5 42.2377 1217.16C83.7016 1132.24 109.389 1052.3 112.384 1042.82C117.614 1038.25 145.802 1013.12 172.455 979.182C172.58 977.899 172.699 976.616 173.023 975.327Z" fill="black"/>
  </g>
  <path fill-rule="evenodd" clip-rule="evenodd" d="M500 7.37898C228.372 7.37898 7.38559 228.365 7.38559 500C7.38559 771.628 228.372 992.614 500 992.614C771.628 992.614 992.614 771.628 992.614 500C992.614 228.365 771.628 7.37898 500 7.37898ZM500 1000C224.299 1000 0 775.701 0 500C0 224.299 224.299 0 500 0C775.701 0 1000 224.299 1000 500C1000 775.701 775.701 1000 500 1000Z" fill="black"/>
</svg>
