<svg width="78" height="78" viewBox="0 0 1000 1000" fill="none" xmlns="http://www.w3.org/2000/svg">
  <path fill-rule="evenodd" clip-rule="evenodd" d="M996.311 499.993C996.311 774.094 774.107 996.304 500 996.304C225.893 996.304 3.68945 774.094 3.68945 499.993C3.68945 225.886 225.893 3.68262 500 3.68262C774.107 3.68262 996.311 225.886 996.311 499.993Z" fill="white"/>
  <mask id="mask0_1152_4307" maskUnits="userSpaceOnUse" x="3" y="3" width="994" height="994">
  <path fill-rule="evenodd" clip-rule="evenodd" d="M996.311 499.993C996.311 774.094 774.107 996.304 500 996.304C225.893 996.304 3.68945 774.094 3.68945 499.993C3.68945 225.886 225.893 3.68262 500 3.68262C774.107 3.68262 996.311 225.886 996.311 499.993Z" fill="white"/>
  </mask>
  <g mask="url(#mask0_1152_4307)">
  <path fill-rule="evenodd" clip-rule="evenodd" d="M415.168 567.519C415.168 567.519 451.682 543.663 445.188 445.143C445.188 445.143 502.936 472.168 565.936 426.473L580.468 566.381C580.468 566.381 536.789 615.995 490.989 611.184C445.188 606.372 415.168 567.519 415.168 567.519Z" fill="white"/>
  <path fill-rule="evenodd" clip-rule="evenodd" d="M446.591 442.149C483.926 459.621 522.916 453.592 563.996 423.796C566.056 422.301 568.962 423.599 569.225 426.131L583.757 566.038C583.852 566.956 583.56 567.872 582.95 568.565C553.181 602.379 522.373 617.804 490.644 614.471C459.196 611.167 433.109 596.144 412.553 569.539C411.373 568.013 411.746 565.805 413.361 564.75C436.398 549.699 446.148 509.954 441.89 445.36C441.725 442.85 444.312 441.082 446.591 442.149ZM577.024 565.267L563.224 432.419L560.498 434.267C522.617 459.332 485.863 464.988 450.541 451.049L448.81 450.344L448.897 451.861C451.972 511.173 442.822 549.736 420.899 567.432L419.922 568.19L421.494 570.092C439.705 591.671 462.023 604.129 488.573 607.571L491.335 607.895C520.672 610.977 549.517 596.534 577.988 564.196L577.024 565.267Z" fill="black"/>
  <path fill-rule="evenodd" clip-rule="evenodd" d="M491.107 454.244C424.372 454.244 370.272 396.878 370.272 326.103C370.272 255.328 424.372 197.956 491.107 197.956C557.842 197.956 611.942 255.328 611.942 326.103C611.942 396.878 557.842 454.244 491.107 454.244Z" fill="white"/>
  <path fill-rule="evenodd" clip-rule="evenodd" d="M491.107 201.262C426.303 201.262 373.578 257.266 373.578 326.103C373.578 394.941 426.303 450.938 491.107 450.938C555.911 450.938 608.635 394.941 608.635 326.103C608.635 257.266 555.911 201.262 491.107 201.262ZM491.107 457.55C422.653 457.55 366.966 398.584 366.966 326.103C366.966 253.616 422.653 194.65 491.107 194.65C559.561 194.65 615.247 253.616 615.247 326.103C615.247 398.584 559.561 457.55 491.107 457.55Z" fill="black"/>
  <path fill-rule="evenodd" clip-rule="evenodd" d="M454.21 378.704C443.525 378.704 434.837 388.292 434.837 400.068C434.837 411.857 443.525 421.431 454.21 421.431C464.895 421.431 473.583 411.857 473.583 400.068C473.583 388.292 464.895 378.704 454.21 378.704ZM423.16 277.699C422.525 277.726 408.772 277.488 396.507 288.007C395.092 289.237 394.933 291.373 396.15 292.788C396.818 293.568 397.763 293.971 398.715 293.971C399.502 293.971 400.282 293.7 400.917 293.158C411.159 284.358 422.895 284.424 423.008 284.47C424.72 284.364 426.413 283.015 426.453 281.157C426.492 279.286 425.024 277.746 423.16 277.699ZM503.37 288.007C491.111 277.488 477.312 277.712 476.724 277.699C474.859 277.746 473.385 279.286 473.431 281.157C473.464 283.015 474.859 284.351 476.876 284.47C476.962 284.437 488.718 284.358 498.96 293.158C499.595 293.7 500.381 293.971 501.162 293.971C502.114 293.971 503.066 293.568 503.734 292.788C504.95 291.373 504.785 289.237 503.37 288.007ZM416.105 309.272C412.25 309.272 409.129 314.237 409.129 320.366C409.129 326.489 412.25 331.448 416.105 331.448C419.953 331.448 423.074 326.489 423.074 320.366C423.074 314.237 419.953 309.272 416.105 309.272ZM483.779 309.272C479.924 309.272 476.803 314.237 476.803 320.366C476.803 326.489 479.924 331.448 483.779 331.448C487.627 331.448 490.748 326.489 490.748 320.366C490.748 314.237 487.627 309.272 483.779 309.272ZM455.982 363.768C457.668 363.768 459.129 362.511 459.334 360.799C459.566 358.941 458.237 357.255 456.385 357.03L439.485 354.98L444.788 334.834C445.264 333.035 444.186 331.184 442.374 330.701C440.569 330.218 438.725 331.303 438.242 333.114L431.954 357.017C431.703 357.956 431.874 358.967 432.423 359.781C432.972 360.587 433.845 361.123 434.817 361.229L455.572 363.741C455.711 363.761 455.843 363.768 455.982 363.768Z" fill="black"/>
  <path fill-rule="evenodd" clip-rule="evenodd" d="M662.642 252.762C652.242 220.625 624.584 190.585 578.921 178.77C580.991 172.023 582.108 164.845 582.108 157.413C582.108 117.83 550.536 85.7401 511.598 85.7401C489.104 85.7401 469.109 96.4925 456.202 113.166C442.073 78.3875 408.407 53.892 369.092 53.892C352.047 53.892 336.105 58.5561 322.312 66.6003C311.522 41.0694 286.581 23.1865 257.515 23.1865C218.57 23.1865 187.004 55.2766 187.004 94.8527C187.004 134.436 218.57 166.519 257.515 166.519C263.922 166.519 270.097 165.571 275.995 163.945C282.793 210.068 321.823 245.477 369.092 245.477C376.875 245.477 390.767 244.812 390.767 244.812H393.028C405.042 261.976 424.719 273.206 447.018 273.206C466.742 273.206 484.396 264.402 496.529 250.511C504.325 266.149 520.121 276.982 538.555 276.982C548.513 276.982 557.723 273.817 565.34 268.474L571.284 321.371C577.678 320.141 584.793 320.934 593.316 331.102C596.469 334.872 598.718 339.643 598.678 344.59C598.585 357.479 588.277 367.896 575.576 367.896C574.802 367.896 574.081 367.742 573.334 367.674L575.88 425.264C606.308 425.264 629.503 405.527 644.287 377.677C662.451 343.427 674.61 289.717 662.642 252.762Z" fill="#000909"/>
  <path fill-rule="evenodd" clip-rule="evenodd" d="M511.651 89.1031C548.704 89.1031 578.855 119.748 578.855 157.409C578.855 164.344 577.83 171.193 575.814 177.766C575.549 178.646 575.642 179.6 576.085 180.406C576.528 181.213 577.275 181.798 578.154 182.026C618.494 192.463 648.162 218.625 659.555 253.814C671.179 289.727 659.237 342.509 641.425 376.077C626.376 404.45 604.331 420.583 579.093 421.826L576.852 371.226C590.744 370.574 601.931 358.887 602.037 344.62C602.077 339.284 599.888 333.706 595.888 328.927C587.576 319.008 580.178 317.22 574.24 317.604L568.679 268.094C568.547 266.918 567.82 265.91 566.762 265.42C565.697 264.922 564.474 265.043 563.515 265.709C556.136 270.883 547.521 273.625 538.608 273.625C522.078 273.625 507.102 264.183 499.531 248.988C499.035 248 498.096 247.315 497.005 247.174C495.927 247.059 494.836 247.449 494.109 248.276C482.135 261.985 464.99 269.848 447.071 269.848C426.772 269.848 407.591 259.761 395.769 242.866C395.147 241.979 394.149 241.448 393.078 241.448H390.816C390.525 241.461 376.759 242.113 369.136 242.113C324.538 242.113 285.923 208.296 279.318 163.451C279.173 162.496 278.644 161.657 277.857 161.132C277.063 160.608 276.091 160.447 275.179 160.702C269.274 162.328 263.35 163.162 257.558 163.162C220.504 163.162 190.36 132.517 190.36 94.8556C190.36 57.1876 220.504 26.5495 257.558 26.5495C284.456 26.5495 308.695 42.786 319.321 67.9268C319.691 68.8075 320.418 69.486 321.311 69.7822C322.21 70.0976 323.182 69.9904 324.009 69.513C337.762 61.4953 353.366 57.2551 369.136 57.2551C406.09 57.2551 439.084 79.7081 453.194 114.446C453.644 115.554 454.635 116.327 455.799 116.495C456.943 116.657 458.127 116.179 458.854 115.246C471.714 98.6323 490.955 89.1031 511.651 89.1031ZM575.933 428.623C605.039 428.623 630.363 411.095 647.243 379.271C665.73 344.431 678.048 289.432 665.836 251.71C654.04 215.272 623.975 187.974 583.074 176.401C584.66 170.219 585.467 163.847 585.467 157.409C585.467 116.038 552.354 82.3827 511.651 82.3827C490.711 82.3827 471.132 91.2533 457.128 106.905C440.962 72.4832 406.983 50.5346 369.136 50.5346C353.412 50.5346 337.841 54.4595 323.883 61.9192C311.532 36.2269 285.884 19.8291 257.558 19.8291C216.861 19.8291 183.748 53.4849 183.748 94.8556C183.748 136.226 216.861 169.882 257.558 169.882C262.775 169.882 268.084 169.27 273.38 168.074C281.969 214.372 322.508 248.833 369.136 248.833C376.911 248.833 390.4 248.195 390.975 248.168H391.398C404.523 265.984 425.205 276.569 447.071 276.569C465.353 276.569 482.902 269.169 495.901 256.118C505.125 271.172 521.106 280.346 538.608 280.346C547.071 280.346 555.31 278.202 562.695 274.102L568.051 321.757C568.157 322.684 568.633 323.524 569.374 324.075C570.114 324.633 571.04 324.848 571.952 324.673C577.189 323.685 583.087 324.015 590.856 333.282C593.825 336.837 595.451 340.843 595.425 344.565C595.346 355.58 586.459 364.539 575.622 364.539C575.271 364.539 574.941 364.485 574.604 364.438L573.698 364.331C572.699 364.25 571.8 364.565 571.106 365.238C570.412 365.91 570.041 366.85 570.081 367.825L572.633 425.41C572.713 427.208 574.167 428.623 575.933 428.623Z" fill="black"/>
  <path fill-rule="evenodd" clip-rule="evenodd" d="M1420.27 1733.77L1364 1635.32C1324.04 1565.4 1296.47 1488.89 1284.56 1409.23C1246.11 1152.05 1164.83 913.788 1077.84 779.558C1046.73 731.548 1012.47 691.42 978.386 658.181C896.033 577.852 757.498 629.816 749.035 744.554C745.577 791.42 767.264 836.005 804.926 864.113C998.023 1008.23 1080.61 1465 1086.45 1526.01C1092.89 1593.23 1024.15 1586.26 1012.91 1725.91C1000.42 1881.03 1067.77 1892.6 1095.64 1877.07C1123.52 1861.53 1106.74 1736.2 1106.74 1736.2C1166.72 1817.89 1126.7 1943.54 1170.56 1981.36C1211.3 2016.51 1249.53 1980.58 1249.53 1980.58C1316.15 2001.4 1343.38 1947.64 1343.38 1947.64C1419.93 1936.42 1411.57 1863.25 1411.57 1863.25C1457.64 1812.27 1420.27 1733.77 1420.27 1733.77ZM272.203 744.554C263.74 629.816 125.205 577.852 42.8527 658.181C8.76777 691.42 -25.4891 731.548 -56.6052 779.558C-143.593 913.788 -224.874 1152.05 -263.316 1409.23C-275.225 1488.89 -302.802 1565.4 -342.765 1635.32L-399.027 1733.77C-399.027 1733.77 -436.404 1812.27 -390.332 1863.25C-390.332 1863.25 -398.683 1936.42 -322.135 1947.64C-322.135 1947.64 -294.914 2001.4 -228.293 1980.58C-228.293 1980.58 -190.062 2016.51 -149.312 1981.36C-105.461 1943.54 -145.477 1817.89 -85.4997 1736.2C-85.4997 1736.2 -102.281 1861.53 -74.3981 1877.07C-46.5219 1892.6 20.8148 1881.03 8.3313 1725.91C-2.90911 1586.26 -71.6542 1593.23 -65.2141 1526.01C-59.3691 1465 23.215 1008.23 216.319 864.113C253.981 836.005 275.661 791.42 272.203 744.554Z" fill="white"/>
  <path fill-rule="evenodd" clip-rule="evenodd" d="M1339.28 1709.68C1380.45 1786.6 1400.2 1827.15 1408.22 1863.79C1408.66 1867.88 1414.23 1931.95 1345.76 1943.77C1354.21 1912.24 1349.98 1850.21 1295.39 1728.69C1294.62 1726.97 1292.63 1726.21 1290.92 1726.99C1289.21 1727.75 1288.45 1729.76 1289.22 1731.46C1351.73 1870.62 1345.69 1928.15 1336.52 1950.06C1335.45 1952.63 1334.3 1954.73 1333.13 1956.6C1330.47 1959.79 1327.03 1963.35 1322.77 1966.78C1322.14 1967.02 1321.66 1967.46 1321.28 1967.97C1307.48 1978.51 1285.64 1987.1 1254.13 1978.37C1259.31 1963.87 1271.8 1905.74 1222.94 1749.71C1222.38 1747.93 1220.48 1746.91 1218.7 1747.49C1216.91 1748.05 1215.92 1749.95 1216.48 1751.73C1269.51 1921.08 1249 1973.63 1246.77 1978.51C1242.46 1982.35 1208.91 2009.97 1172.76 1978.8C1153.45 1962.14 1151.24 1926.24 1148.67 1884.66C1145.62 1835.15 1142.15 1779.04 1109.73 1734.6C1109.67 1707.99 1118.11 1696.66 1118.22 1696.52C1119.37 1695.06 1119.12 1692.95 1117.66 1691.78C1116.21 1690.61 1114.07 1690.86 1112.91 1692.32C1112.21 1693.21 1095.85 1714.54 1106.54 1767.43C1106.55 1767.46 1106.57 1767.48 1106.57 1767.51C1109.79 1808.57 1110.35 1865 1093.99 1874.12C1084.45 1879.45 1067.67 1882.03 1051.83 1871.85C1035.04 1861.06 1008.1 1827.79 1016.28 1726.18C1022.52 1648.65 1046.36 1617.35 1065.52 1592.2C1080.74 1572.23 1092.77 1556.44 1089.82 1525.7C1083.7 1461.71 999.068 1004.78 806.943 861.402C769.473 833.439 749.088 789.846 752.407 744.805C756.209 693.219 788.581 649.811 836.882 631.515C885.454 613.088 938.76 624.255 976.025 660.608C1013.36 697.034 1046.66 737.671 1075 781.396C1165.02 920.308 1244.04 1161.08 1281.21 1409.74C1292.97 1488.4 1319.84 1564.87 1361.06 1637.01L1417.2 1735.22C1417.56 1735.97 1450.64 1807.14 1413.3 1855.86C1404.28 1820.1 1384.34 1779.53 1345.24 1706.48C1344.36 1704.84 1342.32 1704.19 1340.66 1705.1C1339.01 1705.97 1338.39 1708.03 1339.28 1709.68ZM1423.2 1732.09L1366.94 1633.65C1326.13 1562.24 1299.54 1486.57 1287.9 1408.73C1250.6 1159.18 1171.19 917.392 1080.68 777.727C1052.07 733.565 1018.45 692.531 980.753 655.755C941.59 617.564 885.54 605.854 834.482 625.174C783.695 644.422 749.656 690.065 745.663 744.303C742.165 791.671 763.561 837.473 802.896 866.817C993.064 1008.75 1076.99 1462.74 1083.08 1526.34C1085.77 1554.44 1075.01 1568.56 1060.13 1588.09C1040.44 1613.95 1015.93 1646.12 1009.53 1725.64C1001.49 1825.5 1026.11 1863.37 1048.18 1877.55C1066.54 1889.36 1086.11 1886.26 1097.28 1880.03C1121.48 1866.55 1115.47 1784.57 1111.78 1749.96C1136.11 1790.9 1139.18 1840.69 1141.91 1885.08C1144.58 1928.18 1146.87 1965.4 1168.34 1983.93C1182.38 1996.04 1196.2 2000.1 1208.43 2000.1C1229.21 2000.1 1245.41 1988.36 1250.32 1984.37C1285.3 1994.71 1309.75 1984.91 1325.25 1973.07C1326.2 1972.71 1333.23 1969.77 1339.45 1959.27C1342.43 1955.59 1344.45 1952.49 1345.5 1950.73C1416.42 1939.38 1415.7 1875.29 1415.06 1864.42C1460.61 1812.35 1423.7 1733.12 1423.2 1732.09ZM214.289 861.402C22.1702 1004.78 -62.4569 1461.71 -68.5862 1525.7C-71.5351 1556.44 -59.5079 1572.23 -44.2805 1592.2C-25.1255 1617.35 -1.2826 1648.65 4.95253 1726.18C13.1382 1827.79 -13.8123 1861.06 -30.6002 1871.85C-46.4426 1882.02 -63.2106 1879.44 -72.7583 1874.12C-89.1164 1865 -88.5479 1808.57 -85.3344 1767.51C-85.3278 1767.48 -85.3145 1767.46 -85.3079 1767.43C-74.6097 1714.54 -90.9745 1693.21 -91.6753 1692.32C-92.8324 1690.87 -94.9417 1690.63 -96.4095 1691.77C-97.8708 1692.92 -98.1286 1695.04 -96.9914 1696.52C-96.879 1696.66 -88.442 1707.99 -88.5015 1734.6C-120.907 1779.04 -124.385 1835.15 -127.44 1884.66C-129.999 1926.24 -132.214 1962.14 -151.527 1978.8C-187.675 2009.99 -221.211 1982.35 -225.535 1978.51C-227.764 1973.63 -248.274 1921.07 -195.246 1751.73C-194.684 1749.95 -195.676 1748.05 -197.461 1747.49C-199.253 1746.91 -201.15 1747.92 -201.706 1749.71C-250.568 1905.74 -238.078 1963.87 -232.895 1978.37C-264.434 1987.12 -286.285 1978.51 -300.084 1967.97C-300.461 1967.44 -300.943 1966.99 -301.591 1966.75L-301.611 1966.74C-305.816 1963.34 -309.222 1959.81 -311.866 1956.64C-313.037 1954.76 -314.2 1952.66 -315.285 1950.06C-324.449 1928.15 -330.486 1870.62 -267.978 1731.46C-267.211 1729.76 -267.978 1727.75 -269.677 1726.99C-271.39 1726.22 -273.387 1726.98 -274.153 1728.69C-328.74 1850.21 -332.972 1912.24 -324.528 1943.77C-392.91 1931.96 -387.435 1868.04 -386.985 1863.81C-378.972 1827.16 -359.222 1786.61 -318.035 1709.68C-317.156 1708.03 -317.771 1705.97 -319.424 1705.1C-321.077 1704.19 -323.12 1704.84 -324.006 1706.48C-363.109 1779.53 -383.045 1820.1 -392.063 1855.86C-429.395 1807.14 -396.328 1735.98 -396.09 1735.44L-339.829 1637.01C-298.596 1564.87 -271.734 1488.4 -259.977 1409.74C-222.805 1161.08 -143.785 920.308 -53.7687 781.396C-25.423 737.664 7.8817 697.034 45.2131 660.608C82.4718 624.255 135.798 613.114 184.35 631.515C232.657 649.797 265.016 693.219 268.825 744.805C272.144 789.846 251.759 833.439 214.289 861.402ZM186.75 625.174C135.705 605.841 79.6551 617.557 40.4855 655.755C2.79048 692.531 -30.8316 733.565 -59.4418 777.727C-149.96 917.392 -229.364 1159.18 -266.669 1408.73C-278.304 1486.57 -304.891 1562.24 -345.707 1633.65L-402.087 1732.32C-402.464 1733.12 -439.372 1812.35 -393.816 1864.42C-394.464 1875.29 -395.178 1939.38 -324.264 1950.73C-323.219 1952.5 -321.183 1955.6 -318.201 1959.29C-311.992 1969.75 -304.99 1972.7 -304.018 1973.06C-288.513 1984.91 -264.064 1994.7 -229.079 1984.37C-224.173 1988.36 -207.974 2000.1 -187.192 2000.1C-174.967 2000.1 -161.148 1996.04 -147.104 1983.93C-125.635 1965.4 -123.34 1928.18 -120.682 1885.08C-117.945 1840.69 -114.877 1790.9 -90.5447 1749.96C-94.2474 1784.57 -100.238 1866.55 -76.0578 1880.03C-64.8769 1886.26 -45.3053 1889.36 -26.9372 1877.55C-4.8729 1863.37 19.7437 1825.5 11.7035 1725.64C5.30307 1646.12 -19.2077 1613.95 -38.8982 1588.09C-53.7819 1568.56 -64.5397 1554.44 -61.8486 1526.34C-55.7589 1462.74 28.1739 1008.75 218.335 866.817C257.67 837.473 279.067 791.671 275.575 744.303C271.575 690.065 237.543 644.422 186.75 625.174Z" fill="black"/>
  <path fill-rule="evenodd" clip-rule="evenodd" d="M1324.05 1362.33C1324.05 1362.33 1286.95 1290.38 1205.09 967.306C1123.23 644.23 824.28 572.292 824.28 572.292V572.298C781.044 558.506 736.049 549.56 690.063 545.923C689.851 545.91 689.646 545.883 689.434 545.87C682.439 545.321 675.417 544.931 668.375 544.627C667.661 544.601 666.947 544.534 666.233 544.501C658.517 544.21 650.774 544.052 643.018 544.052H595.24C595.233 544.078 595.213 544.098 595.2 544.118L594.83 544.052L594.823 544.058L594.783 544.052C581.989 570.996 550.311 590.111 513.132 590.204C475.959 590.111 444.281 570.996 431.487 544.052L431.447 544.058L431.44 544.052L431.07 544.118C431.057 544.098 431.037 544.078 431.03 544.052H383.252C375.496 544.052 367.754 544.21 360.037 544.501C359.323 544.534 358.609 544.601 357.895 544.627C350.853 544.931 343.831 545.321 336.829 545.87C336.624 545.883 336.419 545.91 336.208 545.923C290.221 549.56 245.22 558.506 201.99 572.298V572.292C201.99 572.292 -96.9648 644.23 -178.821 967.306C-260.685 1290.38 -297.779 1362.33 -297.779 1362.33H-12.622C-12.622 1362.33 37.1068 1134.62 125.152 1004.47C118.712 1113.63 98.5853 1288.74 98.5853 1288.74H927.691C927.691 1288.74 907.558 1113.63 901.124 1004.47C989.163 1134.62 1038.89 1362.33 1038.89 1362.33H1324.05Z" fill="#00ACAC"/>
  <path fill-rule="evenodd" clip-rule="evenodd" d="M1041.6 1358.94C1035.66 1332.96 986.194 1124.18 903.921 1002.57C903.511 1001.96 902.916 1001.52 902.255 1001.29L891.491 887.936C891.312 886.071 889.712 884.762 887.801 884.887C885.936 885.059 884.574 886.712 884.753 888.57L903.062 1081.35C903.108 1081.86 903.293 1082.32 903.544 1082.74C904.034 1088.43 904.529 1094.15 905.038 1099.88H121.225C121.516 1096.66 121.8 1093.44 122.078 1090.22C122.078 1090.2 122.091 1090.18 122.091 1090.18L142.258 888.438C142.443 886.58 141.087 884.921 139.223 884.729C137.378 884.563 135.705 885.899 135.52 887.757L124.18 1001.24C123.446 1001.46 122.792 1001.91 122.342 1002.57C40.0756 1124.18 -9.39547 1332.96 -15.3331 1358.94H-292.495C-283.218 1337.92 -245.457 1244.06 -175.542 968.133C-96.1847 654.909 192.291 578.242 202.526 575.631C202.698 575.604 202.857 575.571 203.015 575.525C246.331 561.699 291.226 552.872 337.094 549.235C344.049 548.693 351.038 548.303 358.047 548.006L360.169 547.887C367.839 547.589 375.536 547.43 383.252 547.43H429.384C443.739 575.452 476.336 593.49 513.145 593.582C549.934 593.49 582.531 575.452 596.886 547.43H643.018C650.734 547.43 658.43 547.589 666.1 547.887L668.236 548.012C675.232 548.303 682.214 548.693 689.117 549.235C689.13 549.235 689.778 549.295 689.791 549.295C735.037 552.872 779.939 561.699 823.255 575.525C823.407 575.571 823.572 575.604 823.737 575.631C833.907 578.216 1122.44 654.876 1201.81 968.133C1271.72 1244.06 1309.48 1337.92 1318.76 1358.94H1041.6ZM102.374 1285.36C103.69 1273.67 107.895 1236.09 112.662 1189.27H913.608C918.368 1236.09 922.58 1273.67 923.896 1285.36H102.374ZM908.781 1141.11H117.423L117.489 1140.42C118.547 1129.29 119.605 1117.98 120.623 1106.66H905.634L908.781 1141.11ZM116.762 1148.05H909.429L912.576 1182.49H113.568L116.762 1148.05ZM1327.06 1360.77C1326.69 1360.06 1289.2 1285.49 1208.37 966.466C1126.96 645.123 828.081 569.719 825.066 568.986C825.053 568.986 825.04 568.979 825.04 568.979C781.315 555.054 735.996 546.161 690.38 542.551C690.36 542.551 689.725 542.498 689.699 542.498C682.663 541.942 675.602 541.552 668.534 541.248L666.358 541.116C658.602 540.825 650.82 540.66 643.018 540.66H595.24C595.147 540.66 595.054 540.66 594.968 540.666C593.501 540.481 592.317 541.354 591.722 542.59C579.014 569.376 548.162 586.732 513.145 586.818C478.108 586.732 447.256 569.376 434.541 542.59C433.986 541.414 432.743 540.66 431.44 540.66C431.341 540.653 431.182 540.653 431.03 540.66H383.252C375.443 540.66 367.667 540.825 359.912 541.116L357.749 541.242C350.668 541.552 343.606 541.942 335.943 542.551C290.274 546.161 244.955 555.054 201.23 568.979C201.23 568.979 201.21 568.986 201.197 568.986C198.189 569.719 -100.687 645.123 -182.108 966.466C-262.807 1284.97 -300.416 1360.06 -300.786 1360.78C-301.328 1361.82 -301.282 1363.08 -300.667 1364.09C-300.059 1365.1 -298.961 1365.71 -297.784 1365.71H-12.6221C-11.0352 1365.71 -9.65331 1364.6 -9.3161 1363.04C-8.83343 1360.83 38.6077 1146.59 120.974 1017.01C119.221 1043.83 116.768 1073.9 114.064 1104L110.692 1140.38C110.573 1141.64 110.447 1142.9 110.328 1144.17L110.322 1144.18L110.262 1144.82C102.949 1220.86 95.3387 1287.29 95.2197 1288.36C95.1073 1289.32 95.4048 1290.28 96.0528 1291C96.6941 1291.72 97.6132 1292.13 98.5786 1292.13H927.691C928.65 1292.13 929.576 1291.72 930.217 1291C930.858 1290.28 931.163 1289.32 931.05 1288.36C930.858 1286.68 912.371 1125.27 905.29 1017.01C987.655 1146.59 1035.1 1360.83 1035.59 1363.04C1035.92 1364.6 1037.3 1365.71 1038.89 1365.71H1324.05C1325.23 1365.71 1326.33 1365.1 1326.94 1364.09C1327.55 1363.08 1327.6 1361.82 1327.06 1360.77Z" fill="black"/>
  </g>
  <path fill-rule="evenodd" clip-rule="evenodd" d="M500 7.37898C228.372 7.37898 7.38559 228.365 7.38559 500C7.38559 771.628 228.372 992.614 500 992.614C771.628 992.614 992.614 771.628 992.614 500C992.614 228.365 771.628 7.37898 500 7.37898ZM500 1000C224.299 1000 0 775.701 0 500C0 224.299 224.299 0 500 0C775.701 0 1000 224.299 1000 500C1000 775.701 775.701 1000 500 1000Z" fill="black"/>
</svg>
