<svg width="78" height="78" viewBox="0 0 1000 1000" fill="none" xmlns="http://www.w3.org/2000/svg">
<path fill-rule="evenodd" clip-rule="evenodd" d="M996.327 500.002C996.327 774.103 774.124 996.313 500.017 996.313C225.909 996.313 3.70605 774.103 3.70605 500.002C3.70605 225.895 225.909 3.69141 500.017 3.69141C774.124 3.69141 996.327 225.895 996.327 500.002Z" fill="#EEF3F0"/>
<mask id="mask0_1152_4559" style="mask-type:alpha" maskUnits="userSpaceOnUse" x="3" y="3" width="994" height="994">
<path fill-rule="evenodd" clip-rule="evenodd" d="M996.361 500.021C996.361 774.122 774.158 996.332 500.051 996.332C225.943 996.332 3.74023 774.122 3.74023 500.021C3.74023 225.914 225.943 3.71094 500.051 3.71094C774.158 3.71094 996.361 225.914 996.361 500.021Z" fill="white"/>
</mask>
<g mask="url(#mask0_1152_4559)">
<path fill-rule="evenodd" clip-rule="evenodd" d="M415.269 567.423C415.269 567.423 451.783 543.567 445.289 445.047C445.289 445.047 503.036 472.073 566.037 426.377L580.569 566.285C580.569 566.285 536.889 615.9 491.089 611.088C445.289 606.276 415.269 567.423 415.269 567.423Z" fill="#EDF2EF"/>
<path fill-rule="evenodd" clip-rule="evenodd" d="M446.691 442.053C484.026 459.525 523.016 453.496 564.097 423.701C566.157 422.206 569.063 423.503 569.326 426.035L583.858 565.943C583.953 566.86 583.66 567.776 583.051 568.469C553.282 602.283 522.473 617.709 490.744 614.375C459.296 611.072 433.209 596.048 412.653 569.444C411.474 567.917 411.846 565.709 413.461 564.655C436.499 549.603 446.249 509.858 441.991 445.264C441.825 442.754 444.413 440.986 446.691 442.053ZM577.124 565.172L563.325 432.323L560.599 434.171C522.717 459.237 485.963 464.893 450.641 450.953L448.911 450.248L448.997 451.765C452.073 511.078 442.922 549.64 420.999 567.336L420.023 568.094L421.595 569.996C439.806 591.575 462.124 604.034 488.673 607.475L491.435 607.799C520.773 610.881 549.618 596.439 578.088 564.1L577.124 565.172Z" fill="black"/>
<path fill-rule="evenodd" clip-rule="evenodd" d="M491.22 454.12C424.485 454.12 370.386 396.754 370.386 325.979C370.386 255.204 424.485 197.832 491.22 197.832C557.955 197.832 612.055 255.204 612.055 325.979C612.055 396.754 557.955 454.12 491.22 454.12Z" fill="#EDF2EF"/>
<path fill-rule="evenodd" clip-rule="evenodd" d="M491.221 201.133C426.417 201.133 373.692 257.137 373.692 325.975C373.692 394.812 426.417 450.809 491.221 450.809C556.025 450.809 608.749 394.812 608.749 325.975C608.749 257.137 556.025 201.133 491.221 201.133ZM491.221 457.421C422.767 457.421 367.08 398.455 367.08 325.975C367.08 253.487 422.767 194.521 491.221 194.521C559.675 194.521 615.361 253.487 615.361 325.975C615.361 398.455 559.675 457.421 491.221 457.421Z" fill="black"/>
<path fill-rule="evenodd" clip-rule="evenodd" d="M477.305 382.104C476.29 381.603 475.129 381.806 474.276 382.605C457.118 398.665 439.639 385.553 438.904 384.985C437.528 383.923 435.678 384.349 434.768 385.945C433.852 387.534 434.214 389.678 435.579 390.733C435.777 390.895 454.167 404.839 473.209 391.869C472.9 398.016 471.482 407.192 466.097 412.23C461.243 416.761 453.828 417.228 444.021 413.576C442.446 413.008 440.771 413.995 440.264 415.821C439.762 417.64 440.625 419.587 442.195 420.176C447.154 422.015 451.658 422.934 455.713 422.934C461.343 422.934 466.08 421.143 469.872 417.599C480.921 407.24 479.2 385.857 479.125 384.951C479.014 383.686 478.314 382.591 477.305 382.104ZM426.601 277.539C426.046 277.607 413.9 277.323 403.083 288.088C401.829 289.332 401.688 291.517 402.762 292.964C403.351 293.768 404.191 294.174 405.031 294.174C405.72 294.174 406.414 293.897 406.974 293.342C416.011 284.342 426.326 284.525 426.466 284.464C428.135 284.207 429.471 282.983 429.506 281.076C429.541 279.155 428.24 277.586 426.601 277.539ZM497.368 288.095C486.558 277.323 474.387 277.586 473.862 277.539C472.211 277.586 470.916 279.155 470.951 281.076C470.986 282.983 472.375 284.193 473.997 284.464C474.02 284.301 484.446 284.355 493.477 293.336C494.043 293.897 494.731 294.174 495.426 294.174C496.265 294.174 497.1 293.768 497.689 292.971C498.763 291.517 498.622 289.332 497.368 288.095ZM420.369 309.829C416.974 309.829 414.22 314.901 414.22 321.169C414.22 327.431 416.974 332.509 420.369 332.509C423.771 332.509 426.524 327.431 426.524 321.169C426.524 314.901 423.771 309.829 420.369 309.829ZM480.088 309.829C476.686 309.829 473.933 314.901 473.933 321.169C473.933 327.431 476.686 332.509 480.088 332.509C483.483 332.509 486.237 327.431 486.237 321.169C486.237 314.901 483.483 309.829 480.088 309.829ZM436.885 362.967L455.193 365.544C455.316 365.563 455.432 365.571 455.555 365.571C457.043 365.571 458.338 364.272 458.519 362.521C458.717 360.62 457.55 358.896 455.911 358.666L441.005 356.576L445.683 335.972C446.098 334.126 445.147 332.232 443.554 331.746C441.967 331.266 440.328 332.368 439.908 334.214L434.36 358.653C434.138 359.626 434.29 360.647 434.774 361.479C435.258 362.304 436.028 362.845 436.885 362.967Z" fill="black"/>
<path fill-rule="evenodd" clip-rule="evenodd" d="M662.708 252.701C652.308 220.563 624.65 190.523 578.987 178.709C581.057 171.961 582.174 164.784 582.174 157.351C582.174 117.769 550.602 85.6785 511.664 85.6785C489.17 85.6785 469.175 96.431 456.268 113.104C442.138 78.326 408.473 53.8305 369.158 53.8305C352.113 53.8305 336.171 58.4946 322.378 66.5388C311.588 41.0078 286.647 23.125 257.581 23.125C218.636 23.125 187.07 55.215 187.07 94.7912C187.07 134.375 218.636 166.457 257.581 166.457C263.988 166.457 270.163 165.51 276.061 163.883C282.858 210.006 321.889 245.415 369.158 245.415C376.941 245.415 390.833 244.75 390.833 244.75H393.094C405.108 261.914 424.785 273.144 447.084 273.144C466.808 273.144 484.462 264.34 496.595 250.449C504.391 266.088 520.187 276.921 538.621 276.921C548.579 276.921 557.789 273.756 565.406 268.413L571.35 321.309C577.744 320.08 584.859 320.872 593.382 331.04C596.535 334.81 598.784 339.582 598.744 344.528C598.651 357.418 588.343 367.835 575.642 367.835C574.868 367.835 574.147 367.68 573.4 367.613L575.946 425.203C606.374 425.203 629.569 405.466 644.353 377.616C662.517 343.366 674.676 289.656 662.708 252.701Z" fill="#000909"/>
<path fill-rule="evenodd" clip-rule="evenodd" d="M511.716 89.0396C548.77 89.0396 578.921 119.684 578.921 157.346C578.921 164.281 577.896 171.129 575.879 177.702C575.615 178.582 575.707 179.536 576.15 180.343C576.593 181.15 577.34 181.734 578.22 181.963C618.56 192.399 648.228 218.562 659.62 253.75C671.244 289.664 659.303 342.445 641.49 376.014C626.441 404.386 604.397 420.519 579.159 421.762L576.917 371.162C590.809 370.51 601.997 358.823 602.102 344.556C602.142 339.22 599.953 333.642 595.953 328.864C587.642 318.944 580.243 317.157 574.305 317.54L568.745 268.031C568.613 266.854 567.885 265.847 566.827 265.356C565.763 264.859 564.539 264.98 563.581 265.645C556.202 270.82 547.586 273.562 538.673 273.562C522.143 273.562 507.167 264.12 499.596 248.925C499.1 247.937 498.162 247.251 497.071 247.11C495.993 246.996 494.902 247.385 494.175 248.212C482.2 261.922 465.055 269.785 447.137 269.785C426.838 269.785 407.656 259.698 395.834 242.803C395.213 241.915 394.214 241.384 393.143 241.384H390.882C390.591 241.397 376.825 242.049 369.201 242.049C324.603 242.049 285.989 208.232 279.383 163.387C279.238 162.433 278.709 161.593 277.922 161.069C277.129 160.545 276.157 160.383 275.244 160.638C269.34 162.265 263.415 163.098 257.623 163.098C220.57 163.098 190.425 132.453 190.425 94.7921C190.425 57.1241 220.57 26.4861 257.623 26.4861C284.521 26.4861 308.761 42.7225 319.386 67.8633C319.756 68.7441 320.484 69.4225 321.376 69.7187C322.276 70.0341 323.247 69.9269 324.074 69.4496C337.827 61.4318 353.431 57.1916 369.201 57.1916C406.155 57.1916 439.149 79.6446 453.259 114.382C453.709 115.491 454.701 116.264 455.865 116.432C457.008 116.593 458.192 116.116 458.919 115.182C471.78 98.5689 491.021 89.0396 511.716 89.0396ZM575.998 428.56C605.104 428.56 630.428 411.031 647.309 379.208C665.796 344.368 678.114 289.368 665.902 251.646C654.106 215.209 624.041 187.91 583.139 176.337C584.726 170.155 585.533 163.784 585.533 157.346C585.533 115.975 552.42 82.3192 511.716 82.3192C490.776 82.3192 471.198 91.1898 457.194 106.842C441.027 72.4197 407.048 50.4711 369.201 50.4711C353.478 50.4711 337.906 54.396 323.948 61.8557C311.597 36.1634 285.949 19.7656 257.623 19.7656C216.926 19.7656 183.813 53.4214 183.813 94.7921C183.813 136.163 216.926 169.819 257.623 169.819C262.84 169.819 268.15 169.207 273.446 168.011C282.035 214.308 322.573 248.77 369.201 248.77C376.977 248.77 390.465 248.132 391.04 248.105H391.464C404.588 265.921 425.271 276.505 447.137 276.505C465.419 276.505 482.967 269.106 495.966 256.055C505.19 271.109 521.171 280.282 538.673 280.282C547.137 280.282 555.375 278.138 562.761 274.039L568.117 321.693C568.222 322.621 568.698 323.46 569.439 324.012C570.18 324.569 571.105 324.784 572.018 324.61C577.254 323.622 583.152 323.951 590.921 333.218C593.89 336.774 595.517 340.779 595.49 344.502C595.411 355.517 586.524 364.475 575.687 364.475C575.337 364.475 575.006 364.421 574.669 364.374L573.763 364.267C572.765 364.186 571.866 364.502 571.171 365.174C570.477 365.846 570.107 366.787 570.147 367.762L572.699 425.346C572.778 427.145 574.233 428.56 575.998 428.56Z" fill="black"/>
<path fill-rule="evenodd" clip-rule="evenodd" d="M1211.6 937.764L1124.01 810.02C1012.79 647.801 828.75 550.843 632.062 550.843H584.33L588.39 512.421C589.19 504.876 583.272 498.311 575.688 498.311H459.31C456.811 503.117 453.941 507.138 451.277 510.199C442.231 520.586 427.136 515.065 414.454 507.124C413.806 509.115 413.582 511.277 414.011 513.505L421.232 550.843H395.485C392.78 562.031 388.516 574.765 381.798 589.331C349.564 659.207 243.058 716.289 243.058 716.289C243.058 716.289 203.551 903.633 123.03 1056.17L82.168 1295.54H923.394L881.791 1051.87L862.497 907.66L882.109 946.876C883.629 949.924 886.744 951.848 890.155 951.848H1204.19C1211.43 951.848 1215.7 943.728 1211.6 937.764Z" fill="#009C9C"/>
<path fill-rule="evenodd" clip-rule="evenodd" d="M1214.4 935.85L1126.8 808.106C1014.9 644.902 829.952 547.468 632.061 547.468H588.092L591.755 512.781C592.237 508.232 590.756 503.676 587.701 500.278C584.64 496.872 580.263 494.922 575.687 494.922H426.547C421.707 494.922 417.165 497.071 414.09 500.793C411.009 504.536 409.772 509.396 410.685 514.15L417.132 547.468H394.016C394.069 549.729 393.93 551.997 393.58 554.232H421.231C422.243 554.232 423.201 553.782 423.843 553.008C424.484 552.222 424.742 551.197 424.55 550.205L417.33 512.867C416.801 510.103 417.515 507.28 419.307 505.104C421.099 502.936 423.737 501.699 426.547 501.699H575.687C578.385 501.699 580.865 502.797 582.663 504.807C584.468 506.804 585.301 509.396 585.024 512.067L580.964 550.489C580.865 551.448 581.175 552.4 581.817 553.108C582.458 553.822 583.371 554.232 584.329 554.232H632.061C827.717 554.232 1010.58 650.569 1121.22 811.935L1208.81 939.679C1210.01 941.431 1210.14 943.593 1209.15 945.471C1208.17 947.349 1206.31 948.459 1204.19 948.459H890.155C888.012 948.459 886.095 947.276 885.136 945.358L865.525 906.149C864.791 904.668 863.078 903.921 861.505 904.43C859.924 904.913 858.926 906.473 859.144 908.113L878.458 1052.44L919.38 1292.16H86.1807L123.056 1076.14C120.768 1076.24 118.493 1076.1 116.265 1075.7L78.8347 1294.97C78.6628 1295.96 78.9339 1296.96 79.5819 1297.72C80.2233 1298.49 81.1687 1298.92 82.1671 1298.92H923.393C924.398 1298.92 925.337 1298.49 925.985 1297.72C926.627 1296.96 926.904 1295.96 926.732 1294.97L885.149 1051.42L868.547 927.321L879.079 948.387C881.189 952.605 885.434 955.237 890.155 955.237H1204.19C1208.79 955.237 1212.99 952.704 1215.14 948.625C1217.29 944.545 1217.01 939.652 1214.4 935.85Z" fill="black"/>
<path fill-rule="evenodd" clip-rule="evenodd" d="M442.736 549.364C440.865 549.364 439.351 547.85 439.351 545.979V515.319C439.351 513.441 440.865 511.934 442.736 511.934C444.607 511.934 446.121 513.441 446.121 515.319V545.979C446.121 547.85 444.607 549.364 442.736 549.364Z" fill="black"/>
<path fill-rule="evenodd" clip-rule="evenodd" d="M465.597 549.364C463.726 549.364 462.212 547.85 462.212 545.979V515.319C462.212 513.441 463.726 511.934 465.597 511.934C467.469 511.934 468.983 513.441 468.983 515.319V545.979C468.983 547.85 467.469 549.364 465.597 549.364Z" fill="black"/>
<path fill-rule="evenodd" clip-rule="evenodd" d="M488.468 549.364C486.597 549.364 485.083 547.85 485.083 545.979V515.319C485.083 513.441 486.597 511.934 488.468 511.934C490.34 511.934 491.854 513.441 491.854 515.319V545.979C491.854 547.85 490.34 549.364 488.468 549.364Z" fill="black"/>
<path fill-rule="evenodd" clip-rule="evenodd" d="M511.34 549.364C509.468 549.364 507.954 547.85 507.954 545.979V515.319C507.954 513.441 509.468 511.934 511.34 511.934C513.211 511.934 514.725 513.441 514.725 515.319V545.979C514.725 547.85 513.211 549.364 511.34 549.364Z" fill="black"/>
<path fill-rule="evenodd" clip-rule="evenodd" d="M534.196 549.364C532.325 549.364 530.811 547.85 530.811 545.979V515.319C530.811 513.441 532.325 511.934 534.196 511.934C536.067 511.934 537.581 513.441 537.581 515.319V545.979C537.581 547.85 536.067 549.364 534.196 549.364Z" fill="black"/>
<path fill-rule="evenodd" clip-rule="evenodd" d="M557.067 549.364C555.196 549.364 553.682 547.85 553.682 545.979V515.319C553.682 513.441 555.196 511.934 557.067 511.934C558.938 511.934 560.452 513.441 560.452 515.319V545.979C560.452 547.85 558.938 549.364 557.067 549.364Z" fill="black"/>
<path fill-rule="evenodd" clip-rule="evenodd" d="M1174.62 951.856H898.023C898.023 951.856 999.781 1118.07 898.307 1175.36C796.839 1232.63 338.296 1081.15 338.296 1081.15C338.296 1081.15 213.911 1040.23 204.093 1092.61C203.008 1098.39 203.041 1103.58 203.96 1108.22C203.96 1108.22 166.86 1099.77 149.061 1077.67H111.267C199.709 921.877 243.057 716.297 243.057 716.297C243.057 716.297 349.563 659.215 381.79 589.339C414.024 519.464 392.164 489.485 392.164 489.485C392.164 489.485 433.463 530.664 451.276 510.207C469.082 489.743 496.489 427.087 354.251 365.437C212.007 303.767 113.449 476.406 82.9672 538.381C52.4858 600.362 -112.332 951.856 -112.332 951.856H-197.025C-197.025 951.856 -303.821 1176.47 -170.021 1234.16C-81.3875 1272.38 -7.37267 1233.83 52.3933 1163.55C88.3692 1184.06 142.217 1206.46 222.705 1228.65C222.705 1228.65 321.522 1261.18 363.257 1283.28C404.992 1305.37 869.789 1525.9 1104.24 1352.83C1338.69 1179.76 1174.62 951.856 1174.62 951.856Z" fill="#EDF2EF"/>
<path fill-rule="evenodd" clip-rule="evenodd" d="M1102.24 1350.1C860.229 1528.78 369.691 1282.84 364.845 1280.27C323.335 1258.31 224.763 1225.75 223.612 1225.38C50.6884 1177.73 3.11504 1128.99 -9.8511 1104.18C-15.7292 1092.93 -15.6565 1084.74 -15.1606 1081.05H34.6014C34.4096 1082.21 34.3568 1083.53 34.5617 1085.02C36.2809 1097.55 54.0672 1112.21 87.4313 1128.57C153.201 1160.86 235.031 1185.61 235.851 1185.85C236.182 1185.95 236.506 1186 236.83 1186C238.284 1186 239.626 1185.05 240.069 1183.58C240.612 1181.8 239.594 1179.91 237.802 1179.38C236.995 1179.13 155.687 1154.54 90.4067 1122.5C50.014 1102.67 42.311 1090.13 41.3192 1084.4C41.0415 1082.81 41.2994 1081.75 41.6035 1081.05H147.475C163.912 1100.29 193.475 1109 201.29 1111.04C211.076 1148.51 273.268 1151.52 275.814 1151.61L322.455 1155.71C322.554 1155.72 322.654 1155.72 322.753 1155.72C324.492 1155.72 325.966 1154.38 326.125 1152.63C326.29 1150.77 324.908 1149.13 323.044 1148.96L276.244 1144.86C275.622 1144.84 214.064 1141.95 207.281 1107.56C206.414 1103.15 206.461 1098.34 207.419 1093.22C208.808 1085.8 212.755 1080.27 219.466 1076.3C252.408 1056.81 336.393 1084.08 337.24 1084.36C338.383 1084.74 453.465 1122.63 579.464 1153.02C749.293 1193.98 857.135 1202.47 899.974 1178.3C922.27 1165.71 936.77 1147.01 943.071 1122.69C959.542 1059.2 916.161 976.687 903.935 955.231H1172.85C1179.09 964.435 1213.54 1017.73 1224 1087.93C1239.35 1190.92 1198.38 1279.13 1102.24 1350.1ZM1177.36 949.869C1176.73 948.989 1175.7 948.46 1174.62 948.46H898.024C896.801 948.46 895.677 949.122 895.075 950.199C894.48 951.264 894.5 952.567 895.141 953.611C895.736 954.596 954.484 1051.76 936.519 1121.01C930.694 1143.46 917.278 1160.75 896.649 1172.4C797.634 1228.32 343.931 1079.43 339.355 1077.93C335.785 1076.75 251.594 1049.43 216.022 1070.47C207.651 1075.42 202.513 1082.66 200.768 1091.98C200.014 1096 199.75 1099.9 199.974 1103.63C189.62 1100.58 164.851 1091.87 151.693 1075.55C151.059 1074.74 150.087 1074.28 149.062 1074.28H-17.8715C-19.2798 1074.28 -20.5493 1075.15 -21.0386 1076.48C-21.2238 1076.95 -25.4026 1088.56 -16.1855 1106.66C-8.05931 1122.63 9.83278 1142.6 47.0121 1164.4C23.7312 1191.29 -1.63239 1213.29 -29.1449 1227.54C-73.6636 1250.59 -120.602 1251.79 -168.678 1231.05C-195.695 1219.4 -214.566 1199.74 -224.774 1172.61C-254.74 1093.03 -202.413 971.96 -194.855 955.231H-112.331C-111.015 955.231 -109.825 954.471 -109.269 953.281C-107.616 949.77 55.8854 601.112 86.0031 539.865C121 468.733 217.027 309.615 352.903 368.534C416.412 396.06 453.856 427.712 461.182 460.064C466.63 484.132 454.285 501.588 448.725 507.975C446.192 510.878 443.012 512.359 439.005 512.504C421.034 512.835 394.817 487.339 394.553 487.081L361.909 454.391C361.314 453.796 360.554 453.512 359.78 453.459C329.299 415.585 272.614 398.447 271.794 398.209C270.002 397.674 268.124 398.718 267.602 400.503C267.066 402.295 268.098 404.173 269.89 404.702C270.994 405.019 380.449 438.093 371.424 512.676C365.116 564.845 352.884 596.708 336.975 602.388C328.908 605.277 319.334 601.495 308.537 591.154C308.365 590.982 308.153 590.909 307.962 590.784C315.347 569.044 315.572 538.489 308.577 499.26C298.473 442.589 219.506 439.951 218.713 439.931C216.802 439.818 215.288 441.366 215.248 443.23C215.195 445.095 216.67 446.642 218.541 446.695C219.281 446.721 292.78 449.214 301.945 500.609C315.129 574.571 302.044 615.691 263.337 622.766C256.448 623.355 237.458 622.819 232.109 612.914C231.957 612.63 231.732 612.418 231.52 612.194C245.068 590.334 253.168 558.881 254.861 536.493C258.643 486.466 182.684 474.796 179.451 474.32C177.593 474.055 175.887 475.332 175.609 477.176C175.338 479.034 176.621 480.753 178.472 481.025C179.199 481.124 251.416 492.232 248.11 535.977C245.643 568.66 228.452 620.769 203.829 629.51C193.918 633.061 183.398 629.014 172.568 617.562C141.98 585.256 189.19 531.534 189.666 530.998C190.909 529.603 190.784 527.461 189.395 526.218C187.993 524.981 185.858 525.107 184.615 526.489C183.848 527.355 176.832 535.342 169.857 546.9C169.612 546.391 169.281 545.915 168.785 545.571C163.159 541.683 165.79 527.361 167.152 522.654C167.675 520.862 166.637 518.984 164.845 518.468C163.053 517.959 161.175 518.971 160.653 520.769C159.972 523.103 154.312 543.812 164.937 551.138C165.526 551.548 166.194 551.74 166.855 551.74C166.941 551.74 167.013 551.687 167.099 551.68C155.945 571.946 147.098 600.503 167.648 622.217C177.315 632.433 187.028 637.557 196.642 637.557C199.809 637.557 202.963 637.002 206.097 635.884C214.197 633.015 221.351 626.535 227.56 618.065C234.826 628.148 250.755 629.669 259.072 629.669C261.935 629.669 263.886 629.504 264.25 629.471C283.669 625.927 297.343 615.156 305.317 597.363C314.56 605.826 323.321 610.124 331.487 610.124C334.139 610.124 336.73 609.674 339.256 608.768C358.233 601.978 371.318 569.923 378.148 513.483C379.88 499.161 377.599 486.314 372.746 474.836L389.541 491.643C390.757 493.455 408.914 522.469 378.723 587.928C347.343 655.945 242.516 712.736 241.458 713.304C240.579 713.78 239.951 714.62 239.746 715.592C239.197 718.211 203.928 881.93 133.808 1026.73C135.52 1028.71 136.975 1030.81 138.079 1033.07C206.388 893.548 242.232 735.831 246.04 718.521C259.218 711.281 354.153 657.34 384.866 590.751C405.581 545.862 404.451 516.921 400.609 501.416C410.739 509.502 426.078 519.877 439.243 519.268C445.148 519.057 450.054 516.756 453.829 512.418C460.064 505.251 473.923 485.666 467.787 458.564C459.853 423.533 422.111 391.148 355.594 362.313C293.23 335.283 232.261 348.989 174.386 403.062C128.274 446.153 95.412 505.396 79.9333 536.876C50.9595 595.789 -101.196 920.141 -114.486 948.46H-197.024C-198.333 948.46 -199.523 949.214 -200.085 950.398C-202.717 955.939 -264.202 1087.07 -231.115 1174.99C-220.239 1203.91 -200.132 1224.86 -171.356 1237.27C-147.712 1247.47 -124.312 1252.56 -101.302 1252.56C-75.6604 1252.56 -50.4952 1246.22 -26.0307 1233.55C2.55959 1218.74 28.8423 1195.81 52.9034 1167.79C89.3951 1188.25 143.071 1210.2 221.655 1231.86C222.64 1232.18 320.67 1264.55 361.678 1286.27C365.255 1288.15 631.672 1421.71 870.326 1421.7C957.353 1421.7 1040.71 1403.94 1106.26 1355.55C1340.68 1182.49 1179.02 952.176 1177.36 949.869Z" fill="black"/>
<path fill-rule="evenodd" clip-rule="evenodd" d="M347.921 1031.37L229.765 659.258H-333.706L-200.856 1077.67H442.737V1031.37H347.921Z" fill="#EFF3F0"/>
<path fill-rule="evenodd" clip-rule="evenodd" d="M-198.382 1074.28H439.353V1034.75H347.922C346.441 1034.75 345.138 1033.8 344.695 1032.39L227.286 662.64H-329.083L-198.382 1074.28ZM442.732 1081.04H-200.861C-202.336 1081.04 -203.638 1080.1 -204.081 1078.69L-336.938 660.279C-337.262 659.241 -337.077 658.124 -336.436 657.258C-335.808 656.385 -334.789 655.869 -333.712 655.869H229.766C231.24 655.869 232.543 656.821 232.992 658.23L350.395 1027.98H442.732C444.609 1027.98 446.124 1029.5 446.124 1031.37V1077.66C446.124 1079.53 444.609 1081.04 442.732 1081.04Z" fill="black"/>
<path fill-rule="evenodd" clip-rule="evenodd" d="M360.948 1081.05C359.5 1081.05 358.158 1080.12 357.708 1078.66L309.11 920.31C308.561 918.531 309.566 916.64 311.358 916.091C313.15 915.509 315.034 916.534 315.583 918.333L364.181 1076.68C364.73 1078.46 363.725 1080.35 361.94 1080.9C361.609 1081 361.272 1081.05 360.948 1081.05Z" fill="black"/>
</g>
<path fill-rule="evenodd" clip-rule="evenodd" d="M500 7.37898C228.372 7.37898 7.38559 228.365 7.38559 500C7.38559 771.628 228.372 992.614 500 992.614C771.628 992.614 992.614 771.628 992.614 500C992.614 228.365 771.628 7.37898 500 7.37898ZM500 1000C224.299 1000 0 775.701 0 500C0 224.299 224.299 0 500 0C775.701 0 1000 224.299 1000 500C1000 775.701 775.701 1000 500 1000Z" fill="black"/>
</svg>
