<svg xmlns="http://www.w3.org/2000/svg" width="30" height="30" viewBox="0 0 30 30" fill="none">
    <path d="M15.1699 2.81266C8.31563 2.72008 2.71993 8.31578 2.8125 15.1701C2.90391 21.7437 8.25645 27.0962 14.8301 27.1877C21.6855 27.2814 27.2801 21.6857 27.1863 14.8314C27.0961 8.2566 21.7436 2.90406 15.1699 2.81266ZM22.5773 21.9875C22.554 22.0127 22.5254 22.0325 22.4935 22.0454C22.4617 22.0584 22.4274 22.0642 22.3931 22.0624C22.3587 22.0606 22.3252 22.0513 22.2949 22.0351C22.2646 22.0189 22.2382 21.9962 22.2176 21.9687C21.6935 21.283 21.0517 20.6959 20.3221 20.2349C18.8303 19.2775 16.94 18.7502 15 18.7502C13.06 18.7502 11.1697 19.2775 9.67793 20.2349C8.94836 20.6957 8.30654 21.2826 7.78242 21.9681C7.76183 21.9957 7.73544 22.0183 7.70511 22.0345C7.67478 22.0507 7.64127 22.06 7.60694 22.0618C7.5726 22.0636 7.5383 22.0578 7.50645 22.0449C7.47461 22.0319 7.446 22.0121 7.42266 21.9869C5.70333 20.1308 4.72939 17.7056 4.6875 15.1759C4.592 9.47418 9.27071 4.70172 14.9748 4.68766C20.6789 4.67359 25.3125 9.30543 25.3125 15.0002C25.3145 17.5908 24.3375 20.0866 22.5773 21.9875Z" fill="white"/>
    <path d="M15 8.4375C13.8445 8.4375 12.7998 8.87051 12.0574 9.65742C11.3151 10.4443 10.9442 11.5324 11.0279 12.7002C11.1979 15 12.9797 16.875 15 16.875C17.0203 16.875 18.7986 15 18.9721 12.7008C19.0588 11.5441 18.6908 10.466 17.9361 9.66445C17.1908 8.87344 16.1479 8.4375 15 8.4375Z" fill="white"/>
</svg>
